<?xml version="1.0" encoding="UTF-8"?>
<svg xmlns="http://www.w3.org/2000/svg" xmlns:xlink="http://www.w3.org/1999/xlink" width="512pt" height="512pt" viewBox="0 0 512 512" version="1.1">
<g id="surface2808747">
<path style=" stroke:none;fill-rule:nonzero;fill:rgb(11.764706%,45.098039%,74.509804%);fill-opacity:1;" d="M 81.445312 480 C 75.355469 480 70.398438 474.917969 70.398438 468.671875 L 70.398438 43.328125 C 70.398438 37.082031 75.367188 32 81.445312 32 L 211.710938 32 C 211.367188 34.152344 211.199219 36.273438 211.199219 38.398438 C 211.199219 63.105469 231.296875 83.199219 256 83.199219 C 280.703125 83.199219 300.800781 63.105469 300.800781 38.398438 C 300.800781 36.273438 300.632812 34.152344 300.289062 32 L 430.554688 32 C 436.644531 32 441.601562 37.082031 441.601562 43.328125 L 441.601562 468.671875 C 441.601562 474.917969 436.632812 480 430.554688 480 Z M 81.445312 480 "/>
<path style=" stroke:none;fill-rule:nonzero;fill:rgb(90.588235%,29.803922%,23.529412%);fill-opacity:1;" d="M 430.539062 38.398438 C 433.113281 38.398438 435.199219 40.613281 435.199219 43.328125 L 435.199219 468.683594 C 435.199219 471.386719 433.113281 473.601562 430.539062 473.601562 L 81.460938 473.601562 C 78.886719 473.601562 76.800781 471.386719 76.800781 468.671875 L 76.800781 43.328125 C 76.800781 40.613281 78.886719 38.398438 81.460938 38.398438 L 204.800781 38.398438 C 204.800781 66.636719 227.761719 89.601562 256 89.601562 C 284.238281 89.601562 307.199219 66.636719 307.199219 38.398438 L 430.539062 38.398438 M 430.539062 25.601562 L 292.042969 25.601562 C 293.476562 29.621094 294.398438 33.882812 294.398438 38.398438 C 294.398438 59.609375 277.210938 76.800781 256 76.800781 C 234.789062 76.800781 217.601562 59.609375 217.601562 38.398438 C 217.601562 33.882812 218.523438 29.621094 219.957031 25.601562 L 81.460938 25.601562 C 71.820312 25.601562 64 33.535156 64 43.328125 L 64 468.683594 C 64 478.464844 71.820312 486.398438 81.460938 486.398438 L 430.554688 486.398438 C 440.179688 486.398438 448 478.464844 448 468.671875 L 448 43.328125 C 448 33.535156 440.179688 25.601562 430.539062 25.601562 Z M 430.539062 25.601562 "/>
<path style=" stroke:none;fill-rule:nonzero;fill:rgb(100%,100%,100%);fill-opacity:1;" d="M 102.398438 64 L 409.601562 64 L 409.601562 448 L 102.398438 448 Z M 102.398438 64 "/>
<path style=" stroke:none;fill-rule:nonzero;fill:rgb(90.588235%,29.803922%,23.529412%);fill-opacity:1;" d="M 256 12.800781 C 270.117188 12.800781 281.601562 24.28125 281.601562 38.398438 C 281.601562 52.519531 270.117188 64 256 64 C 241.882812 64 230.398438 52.519531 230.398438 38.398438 C 230.398438 24.28125 241.882812 12.800781 256 12.800781 M 256 0 C 234.789062 0 217.601562 17.191406 217.601562 38.398438 C 217.601562 59.609375 234.789062 76.800781 256 76.800781 C 277.210938 76.800781 294.398438 59.609375 294.398438 38.398438 C 294.398438 17.191406 277.210938 0 256 0 Z M 256 0 "/>
<path style=" stroke:none;fill-rule:nonzero;fill:rgb(11.764706%,45.098039%,74.509804%);fill-opacity:1;" d="M 192 96 C 181.414062 96 172.800781 87.386719 172.800781 76.800781 L 172.800781 32 L 224.460938 32 L 224.945312 30.644531 C 224.320312 33.125 224 35.726562 224 38.398438 C 224 56.039062 238.347656 70.398438 256 70.398438 C 273.652344 70.398438 288 56.039062 288 38.398438 C 288 35.726562 287.679688 33.125 287.054688 30.644531 L 287.539062 32 L 339.199219 32 L 339.199219 76.800781 C 339.199219 87.386719 330.585938 96 320 96 Z M 255.949219 6.398438 C 255.972656 6.398438 256.027344 6.398438 256.050781 6.398438 C 256.027344 6.398438 255.972656 6.398438 255.949219 6.398438 Z M 255.949219 6.398438 "/>
<path style=" stroke:none;fill-rule:nonzero;fill:rgb(90.588235%,29.803922%,23.529412%);fill-opacity:1;" d="M 332.800781 38.398438 L 332.800781 76.800781 C 332.800781 83.851562 327.054688 89.601562 320 89.601562 L 192 89.601562 C 184.945312 89.601562 179.199219 83.851562 179.199219 76.800781 L 179.199219 38.398438 L 217.601562 38.398438 C 217.601562 59.570312 234.828125 76.800781 256 76.800781 C 277.171875 76.800781 294.398438 59.570312 294.398438 38.398438 L 332.800781 38.398438 M 256 0 C 239.308594 0 225.242188 10.714844 219.957031 25.601562 L 166.398438 25.601562 L 166.398438 76.800781 C 166.398438 90.945312 177.855469 102.398438 192 102.398438 L 320 102.398438 C 334.144531 102.398438 345.601562 90.945312 345.601562 76.800781 L 345.601562 25.601562 L 292.042969 25.601562 C 286.757812 10.714844 272.691406 0 256 0 Z M 256 64 C 241.882812 64 230.398438 52.519531 230.398438 38.398438 C 230.398438 24.28125 241.882812 12.800781 256 12.800781 C 270.117188 12.800781 281.601562 24.28125 281.601562 38.398438 C 281.601562 52.519531 270.117188 64 256 64 Z M 256 64 "/>
<path style=" stroke:none;fill-rule:nonzero;fill:rgb(11.764706%,45.098039%,74.509804%);fill-opacity:1;" d="M 198.398438 153.601562 C 180.726562 153.601562 166.398438 167.925781 166.398438 185.601562 C 166.398438 203.273438 180.726562 217.601562 198.398438 217.601562 C 216.074219 217.601562 230.398438 203.273438 230.398438 185.601562 C 230.398438 167.925781 216.074219 153.601562 198.398438 153.601562 Z M 198.398438 230.398438 C 166.59375 230.398438 140.800781 253.324219 140.800781 281.601562 L 256 281.601562 C 256 253.324219 230.207031 230.398438 198.398438 230.398438 Z M 198.398438 230.398438 "/>
<path style=" stroke:none;fill-rule:nonzero;fill:rgb(90.588235%,29.803922%,23.529412%);fill-opacity:1;" d="M 364.800781 179.199219 L 288 179.199219 C 284.480469 179.199219 281.601562 176.320312 281.601562 172.800781 C 281.601562 169.28125 284.480469 166.398438 288 166.398438 L 364.800781 166.398438 C 368.320312 166.398438 371.199219 169.28125 371.199219 172.800781 C 371.199219 176.320312 368.320312 179.199219 364.800781 179.199219 Z M 364.800781 230.398438 L 288 230.398438 C 284.480469 230.398438 281.601562 227.519531 281.601562 224 C 281.601562 220.480469 284.480469 217.601562 288 217.601562 L 364.800781 217.601562 C 368.320312 217.601562 371.199219 220.480469 371.199219 224 C 371.199219 227.519531 368.320312 230.398438 364.800781 230.398438 Z M 364.800781 281.601562 L 288 281.601562 C 284.480469 281.601562 281.601562 278.71875 281.601562 275.199219 C 281.601562 271.679688 284.480469 268.800781 288 268.800781 L 364.800781 268.800781 C 368.320312 268.800781 371.199219 271.679688 371.199219 275.199219 C 371.199219 278.71875 368.320312 281.601562 364.800781 281.601562 Z M 364.800781 332.800781 L 147.199219 332.800781 C 143.679688 332.800781 140.800781 329.921875 140.800781 326.398438 C 140.800781 322.878906 143.679688 320 147.199219 320 L 364.800781 320 C 368.320312 320 371.199219 322.878906 371.199219 326.398438 C 371.199219 329.921875 368.320312 332.800781 364.800781 332.800781 Z M 364.800781 384 L 147.199219 384 C 143.679688 384 140.800781 381.121094 140.800781 377.601562 C 140.800781 374.078125 143.679688 371.199219 147.199219 371.199219 L 364.800781 371.199219 C 368.320312 371.199219 371.199219 374.078125 371.199219 377.601562 C 371.199219 381.121094 368.320312 384 364.800781 384 Z M 364.800781 384 "/>
</g>
</svg>
